solid Visualization Toolkit generated SLA File
 facet normal 0 1 0
  outer loop
   vertex 1 -1 1
   vertex 1 -1 2
   vertex 2 -1 1
  endloop
 endfacet
 facet normal -1 0 0
  outer loop
   vertex 1 -1 1
   vertex 1 -2 1
   vertex 1 -1 2
  endloop
 endfacet
 facet normal -0 0 -1
  outer loop
   vertex 1 -1 1
   vertex 2 -1 1
   vertex 1 -2 1
  endloop
 endfacet
 facet normal 0.57735026918962584 -0.57735026918962584 0.57735026918962584
  outer loop
   vertex 2 -1 1
   vertex 1 -1 2
   vertex 1 -2 1
  endloop
 endfacet
endsolid
